<svg width="1159" height="933" viewBox="0 0 1159 933" fill="none" xmlns="http://www.w3.org/2000/svg">
<rect width="1159" height="933" rx="40" fill="#4973BE"/>
<circle cx="120.5" cy="100.5" r="40.5" fill="#1E386E"/>
<circle cx="120.5" cy="222.5" r="40.5" fill="#1E386E"/>
<circle cx="120.5" cy="344.5" r="40.5" fill="#1E386E"/>
<circle cx="120.5" cy="466.5" r="40.5" fill="#1E386E"/>
<circle cx="120.5" cy="588.5" r="40.5" fill="#1E386E"/>
<circle cx="120.5" cy="710.5" r="40.5" fill="#1E386E"/>
<circle cx="120.5" cy="832.5" r="40.5" fill="#1E386E"/>
<circle cx="272.5" cy="100.5" r="40.5" fill="#1E386E"/>
<circle cx="272.5" cy="222.5" r="40.5" fill="#1E386E"/>
<circle cx="272.5" cy="344.5" r="40.5" fill="#1E386E"/>
<circle cx="272.5" cy="466.5" r="40.5" fill="#1E386E"/>
<circle cx="272.5" cy="588.5" r="40.5" fill="#1E386E"/>
<circle cx="272.5" cy="710.5" r="40.5" fill="#1E386E"/>
<circle cx="272.5" cy="832.5" r="40.5" fill="#1E386E"/>
<circle cx="424.5" cy="100.5" r="40.5" fill="#1E386E"/>
<circle cx="424.5" cy="222.5" r="40.5" fill="#1E386E"/>
<circle cx="424.5" cy="344.5" r="40.5" fill="#1E386E"/>
<circle cx="424.5" cy="466.5" r="40.5" fill="#1E386E"/>
<circle cx="424.5" cy="588.5" r="40.5" fill="#1E386E"/>
<circle cx="424.5" cy="710.5" r="40.5" fill="#1E386E"/>
<circle cx="424.5" cy="832.5" r="40.5" fill="#1E386E"/>
<circle cx="576.5" cy="100.5" r="40.5" fill="#1E386E"/>
<circle cx="576.5" cy="222.5" r="40.5" fill="#1E386E"/>
<circle cx="576.5" cy="344.5" r="40.5" fill="#1E386E"/>
<circle cx="576.5" cy="466.5" r="40.5" fill="#1E386E"/>
<circle cx="576.5" cy="588.5" r="40.5" fill="#1E386E"/>
<circle cx="576.5" cy="710.5" r="40.5" fill="#1E386E"/>
<circle cx="576.5" cy="832.5" r="40.5" fill="#1E386E"/>
<circle cx="728.5" cy="100.5" r="40.5" fill="#1E386E"/>
<circle cx="728.5" cy="222.5" r="40.5" fill="#1E386E"/>
<circle cx="728.5" cy="344.5" r="40.5" fill="#1E386E"/>
<circle cx="728.5" cy="466.5" r="40.5" fill="#1E386E"/>
<circle cx="728.5" cy="588.5" r="40.5" fill="#1E386E"/>
<circle cx="728.5" cy="710.5" r="40.5" fill="#1E386E"/>
<circle cx="728.5" cy="832.5" r="40.5" fill="#1E386E"/>
<circle cx="880.5" cy="100.5" r="40.5" fill="#1E386E"/>
<circle cx="880.5" cy="222.5" r="40.5" fill="#1E386E"/>
<circle cx="880.5" cy="344.5" r="40.5" fill="#1E386E"/>
<circle cx="880.5" cy="466.5" r="40.5" fill="#1E386E"/>
<circle cx="880.5" cy="588.5" r="40.5" fill="#1E386E"/>
<circle cx="880.5" cy="710.5" r="40.5" fill="#1E386E"/>
<circle cx="880.5" cy="832.5" r="40.5" fill="#1E386E"/>
<circle cx="1032.5" cy="100.5" r="40.5" fill="#1E386E"/>
<circle cx="1032.5" cy="222.5" r="40.5" fill="#1E386E"/>
<circle cx="1032.5" cy="344.5" r="40.5" fill="#1E386E"/>
<circle cx="1032.5" cy="466.5" r="40.5" fill="#1E386E"/>
<circle cx="1032.5" cy="588.5" r="40.5" fill="#1E386E"/>
<circle cx="1032.5" cy="710.5" r="40.5" fill="#1E386E"/>
<circle cx="1032.5" cy="832.5" r="40.5" fill="#1E386E"/>
</svg>
